<svg xmlns="http://www.w3.org/2000/svg" width="50" height="50"><path fill="none" stroke="#000" stroke-miterlimit="10" stroke-width="1.902" d="M41.6 17.502c-.575.572-7.606-.066-8.344-.801-.734-.736-1.382-7.561-.648-8.298l6.656-6.653s.705-.79-.312-.793c-3.275-.012-9.933.062-13.157 3.289l-.665.662c-4.202 4.229-4.088 10.825.042 14.977l5.003 5.002c4.135 4.149 10.712 4.268 14.93.043l.661-.662c3.125-3.123 3.221-9.725 3.234-13.059.009-1.063-.769-.377-.769-.377l-6.631 6.67z"/><path fill="none" stroke="#000" stroke-miterlimit="10" stroke-width="1.799" d="M24.293 18.508L3.008 37.98c-1.498 1.5-3.472 5.578 0 9.051 3.473 3.473 7.551 1.498 9.047 0 0 0 18.81-21.347 19.315-21.105"/></svg>