<svg xmlns="http://www.w3.org/2000/svg" width="50" height="50"><path fill="none" stroke="#000" stroke-linecap="round" stroke-linejoin="round" stroke-miterlimit="10" stroke-width="2" d="M46.999 27.708v-5.5l-6.546-1.07a15.927 15.927 0 00-1.798-4.342l3.815-5.437-3.89-3.887-5.368 3.859a15.803 15.803 0 00-4.366-1.817L27.706 3h-5.5l-1.06 6.492a15.82 15.82 0 00-4.379 1.799l-5.352-3.824-3.889 3.887 3.765 5.384a15.96 15.96 0 00-1.826 4.392l-6.464 1.076v5.5l6.457 1.145a15.86 15.86 0 001.826 4.391l-3.816 5.337 3.887 3.891 5.391-3.776a15.891 15.891 0 004.379 1.808L22.206 47h5.5l1.156-6.513a15.898 15.898 0 004.355-1.824l5.428 3.809 3.888-3.891-3.875-5.38a15.808 15.808 0 001.795-4.344l6.546-1.149z"/><path fill="none" stroke="#000" stroke-linecap="round" stroke-linejoin="round" stroke-miterlimit="10" stroke-width="2" d="M25 18a7 7 0 100 14 7 7 0 100-14z"/></svg>